<svg width="32" height="18" viewBox="0 0 32 18" fill="none" xmlns="http://www.w3.org/2000/svg">
<path d="M25 10H7C6.44 10 6 9.56 6 9C6 8.44 6.44 8 7 8H25C25.56 8 26 8.44 26 9C26 9.56 25.56 10 25 10Z" fill="white"/>
<path d="M20 17C19.8688 17.0016 19.7388 16.9758 19.6183 16.9241C19.4977 16.8724 19.3893 16.7961 19.3 16.7C18.9 16.3 18.9 15.68 19.3 15.28L25.6 8.98002L19.3 2.68002C18.9 2.28002 18.9 1.66002 19.3 1.26002C19.7 0.860022 20.32 0.860022 20.72 1.26002L27.72 8.26002C28.12 8.66002 28.12 9.28002 27.72 9.68002L20.72 16.68C20.52 16.88 20.26 16.98 20.02 16.98L20 17Z" fill="white"/>
</svg>
