<svg width="40" height="41" viewBox="0 0 40 41" fill="none" xmlns="http://www.w3.org/2000/svg">
<g clip-path="url(#clip0_10_33)">
<rect y="0.00915527" width="40.0023" height="40.0042" rx="20.0011" fill="#2C2C2C"/>
<path d="M15.8811 39.0997C15.8811 38.6672 15.8654 37.5229 15.8565 36.0043C10.7932 37.1039 9.72494 33.5638 9.72494 33.5638C8.8969 31.4607 7.70345 30.9008 7.70345 30.9008C6.05071 29.7722 7.8286 29.7945 7.8286 29.7945C9.65566 29.9231 10.6167 31.6708 10.6167 31.6708C12.2404 34.4522 14.8776 33.6487 15.9146 33.1827C16.08 32.0071 16.5504 31.2048 17.0701 30.75C13.0282 30.2896 8.77845 28.7285 8.77845 21.7533C8.77845 19.7653 9.48805 18.1416 10.6524 16.8688C10.4647 16.4084 9.84004 14.5578 10.8312 12.0514C10.8312 12.0514 12.3588 11.5619 15.8364 13.9164C17.288 13.513 18.8457 13.3119 20.3934 13.304C21.94 13.3119 23.4966 13.513 24.9504 13.9164C28.4258 11.5619 29.9511 12.0514 29.9511 12.0514C30.9445 14.5578 30.3199 16.4084 30.1333 16.8688C31.2999 18.1416 32.0039 19.7653 32.0039 21.7533C32.0039 28.7464 27.7475 30.2851 23.6933 30.7354C24.3459 31.2975 24.9281 32.4083 24.9281 34.1068C24.9281 36.5396 24.9057 38.503 24.9057 39.0997C24.9057 39.5117 25.1488 39.9803 25.7798 40.0079H14.9531C15.6269 40.0053 15.8811 39.5221 15.8811 39.0997Z" fill="white"/>
</g>
<defs>
<clipPath id="clip0_10_33">
<rect y="0.00915527" width="40.0023" height="40.0042" rx="20.0011" fill="white"/>
</clipPath>
</defs>
</svg>
