<svg width="165" height="36" viewBox="0 0 165 36" fill="none" xmlns="http://www.w3.org/2000/svg">
<rect width="165" height="32" fill="white"/>
<path d="M41.084 21V17.269H37.782V21H36.222V12.16H37.782V15.774H41.084V12.16H42.644V21H41.084ZM46.4223 13.161H44.8493V11.614H46.4223V13.161ZM46.3833 21H44.8883V14.409H46.3833V21ZM52.161 15.774C51.7537 15.774 51.3637 15.839 50.991 15.969C50.627 16.0903 50.276 16.2897 49.938 16.567V21H48.443V14.409H49.86V15.423C50.302 15.007 50.6963 14.7123 51.043 14.539C51.3897 14.3657 51.7623 14.279 52.161 14.279V15.774ZM58.4754 20.623C58.0247 20.805 57.6 20.935 57.2014 21.013C56.8027 21.091 56.4257 21.13 56.0704 21.13C55.091 21.13 54.35 20.8527 53.8474 20.298C53.3447 19.7433 53.0934 19.0067 53.0934 18.088V17.308C53.0934 16.6927 53.206 16.1597 53.4314 15.709C53.6567 15.2583 53.9774 14.9073 54.3934 14.656C54.8094 14.4047 55.299 14.279 55.8624 14.279C56.3217 14.279 56.7507 14.3743 57.1494 14.565C57.5567 14.747 57.886 15.0373 58.1374 15.436C58.3974 15.826 58.5274 16.3287 58.5274 16.944C58.5274 17.126 58.5144 17.321 58.4884 17.529C58.4624 17.7283 58.419 17.9407 58.3584 18.166H54.5364C54.5537 18.7033 54.688 19.1063 54.9394 19.375C55.1907 19.6437 55.5937 19.778 56.1484 19.778C56.443 19.778 56.7464 19.7433 57.0584 19.674C57.379 19.6047 57.7084 19.5007 58.0464 19.362L58.4754 20.623ZM55.8624 15.54C55.4637 15.54 55.1517 15.67 54.9264 15.93C54.7097 16.1813 54.584 16.5453 54.5494 17.022H57.0454C57.054 16.9787 57.0584 16.9397 57.0584 16.905C57.0584 16.8617 57.0584 16.8227 57.0584 16.788C57.0584 16.372 56.9414 16.06 56.7074 15.852C56.4734 15.644 56.1917 15.54 55.8624 15.54ZM64.7502 12.16L67.2202 18.205L69.6772 12.16H71.3802V21H69.8852V17.62L70.0802 14.526L67.8832 19.96H66.4922L64.3472 14.513L64.5422 17.62V21H63.0472V12.16H64.7502ZM78.6355 20.623C78.1848 20.805 77.7602 20.935 77.3615 21.013C76.9628 21.091 76.5858 21.13 76.2305 21.13C75.2512 21.13 74.5102 20.8527 74.0075 20.298C73.5048 19.7433 73.2535 19.0067 73.2535 18.088V17.308C73.2535 16.6927 73.3662 16.1597 73.5915 15.709C73.8168 15.2583 74.1375 14.9073 74.5535 14.656C74.9695 14.4047 75.4592 14.279 76.0225 14.279C76.4818 14.279 76.9108 14.3743 77.3095 14.565C77.7168 14.747 78.0462 15.0373 78.2975 15.436C78.5575 15.826 78.6875 16.3287 78.6875 16.944C78.6875 17.126 78.6745 17.321 78.6485 17.529C78.6225 17.7283 78.5792 17.9407 78.5185 18.166H74.6965C74.7138 18.7033 74.8482 19.1063 75.0995 19.375C75.3508 19.6437 75.7538 19.778 76.3085 19.778C76.6032 19.778 76.9065 19.7433 77.2185 19.674C77.5392 19.6047 77.8685 19.5007 78.2065 19.362L78.6355 20.623ZM76.0225 15.54C75.6238 15.54 75.3118 15.67 75.0865 15.93C74.8698 16.1813 74.7442 16.5453 74.7095 17.022H77.2055C77.2142 16.9787 77.2185 16.9397 77.2185 16.905C77.2185 16.8617 77.2185 16.8227 77.2185 16.788C77.2185 16.372 77.1015 16.06 76.8675 15.852C76.6335 15.644 76.3518 15.54 76.0225 15.54ZM88.4074 17.308V18.088C88.4074 19.0067 88.156 19.7433 87.6534 20.298C87.1507 20.8527 86.44 21.13 85.5214 21.13C84.6027 21.13 83.892 20.8527 83.3894 20.298C82.8867 19.7433 82.6354 19.0067 82.6354 18.088V17.308C82.6354 16.3893 82.8824 15.657 83.3764 15.111C83.879 14.5563 84.594 14.279 85.5214 14.279C86.4487 14.279 87.1594 14.5563 87.6534 15.111C88.156 15.657 88.4074 16.3893 88.4074 17.308ZM86.8734 17.308C86.8734 16.7793 86.7564 16.3677 86.5224 16.073C86.2884 15.7697 85.9547 15.618 85.5214 15.618C85.088 15.618 84.7544 15.7697 84.5204 16.073C84.2864 16.3677 84.1694 16.7793 84.1694 17.308V18.088C84.1694 18.6167 84.2864 19.0327 84.5204 19.336C84.7544 19.6393 85.088 19.791 85.5214 19.791C85.9547 19.791 86.2884 19.6393 86.5224 19.336C86.7564 19.0327 86.8734 18.6167 86.8734 18.088V17.308ZM93.3076 15.67C93.091 15.67 92.844 15.722 92.5666 15.826C92.2893 15.93 91.96 16.1337 91.5786 16.437V21H90.0836V14.409H91.5006V15.293C91.908 14.9377 92.2936 14.682 92.6576 14.526C93.0216 14.3613 93.39 14.279 93.7626 14.279C94.3953 14.279 94.8763 14.4827 95.2056 14.89C95.535 15.2887 95.6996 15.852 95.6996 16.58V21H94.2046V16.762C94.2046 16.034 93.9056 15.67 93.3076 15.67ZM104.997 17.607H102.033V21H100.473V12.16H105.387V13.655H102.033V16.112H104.997V17.607ZM110.306 15.774C109.898 15.774 109.508 15.839 109.136 15.969C108.772 16.0903 108.421 16.2897 108.083 16.567V21H106.588V14.409H108.005V15.423C108.447 15.007 108.841 14.7123 109.188 14.539C109.534 14.3657 109.907 14.279 110.306 14.279V15.774ZM116.62 20.623C116.169 20.805 115.745 20.935 115.346 21.013C114.947 21.091 114.57 21.13 114.215 21.13C113.236 21.13 112.495 20.8527 111.992 20.298C111.489 19.7433 111.238 19.0067 111.238 18.088V17.308C111.238 16.6927 111.351 16.1597 111.576 15.709C111.801 15.2583 112.122 14.9073 112.538 14.656C112.954 14.4047 113.444 14.279 114.007 14.279C114.466 14.279 114.895 14.3743 115.294 14.565C115.701 14.747 116.031 15.0373 116.282 15.436C116.542 15.826 116.672 16.3287 116.672 16.944C116.672 17.126 116.659 17.321 116.633 17.529C116.607 17.7283 116.564 17.9407 116.503 18.166H112.681C112.698 18.7033 112.833 19.1063 113.084 19.375C113.335 19.6437 113.738 19.778 114.293 19.778C114.588 19.778 114.891 19.7433 115.203 19.674C115.524 19.6047 115.853 19.5007 116.191 19.362L116.62 20.623ZM114.007 15.54C113.608 15.54 113.296 15.67 113.071 15.93C112.854 16.1813 112.729 16.5453 112.694 17.022H115.19C115.199 16.9787 115.203 16.9397 115.203 16.905C115.203 16.8617 115.203 16.8227 115.203 16.788C115.203 16.372 115.086 16.06 114.852 15.852C114.618 15.644 114.336 15.54 114.007 15.54ZM123.399 20.623C122.949 20.805 122.524 20.935 122.125 21.013C121.727 21.091 121.35 21.13 120.994 21.13C120.015 21.13 119.274 20.8527 118.771 20.298C118.269 19.7433 118.017 19.0067 118.017 18.088V17.308C118.017 16.6927 118.13 16.1597 118.355 15.709C118.581 15.2583 118.901 14.9073 119.317 14.656C119.733 14.4047 120.223 14.279 120.786 14.279C121.246 14.279 121.675 14.3743 122.073 14.565C122.481 14.747 122.81 15.0373 123.061 15.436C123.321 15.826 123.451 16.3287 123.451 16.944C123.451 17.126 123.438 17.321 123.412 17.529C123.386 17.7283 123.343 17.9407 123.282 18.166H119.46C119.478 18.7033 119.612 19.1063 119.863 19.375C120.115 19.6437 120.518 19.778 121.072 19.778C121.367 19.778 121.67 19.7433 121.982 19.674C122.303 19.6047 122.632 19.5007 122.97 19.362L123.399 20.623ZM120.786 15.54C120.388 15.54 120.076 15.67 119.85 15.93C119.634 16.1813 119.508 16.5453 119.473 17.022H121.969C121.978 16.9787 121.982 16.9397 121.982 16.905C121.982 16.8617 121.982 16.8227 121.982 16.788C121.982 16.372 121.865 16.06 121.631 15.852C121.397 15.644 121.116 15.54 120.786 15.54ZM125.134 19.141V11.38H126.629V19.141C126.629 19.271 126.66 19.3967 126.72 19.518C126.79 19.6307 126.92 19.687 127.11 19.687H127.318V21.065H126.954C126.46 21.065 126.083 20.9697 125.823 20.779C125.563 20.5883 125.381 20.3457 125.277 20.051C125.182 19.7563 125.134 19.453 125.134 19.141ZM133.758 21.065C133.316 21.065 132.961 20.974 132.692 20.792C132.432 20.61 132.242 20.3847 132.12 20.116C131.748 20.4627 131.388 20.7183 131.041 20.883C130.695 21.0477 130.322 21.13 129.923 21.13C129.343 21.13 128.914 20.9437 128.636 20.571C128.368 20.1983 128.233 19.726 128.233 19.154C128.233 18.7727 128.303 18.439 128.441 18.153C128.589 17.8583 128.827 17.6287 129.156 17.464C129.486 17.2993 129.936 17.217 130.508 17.217C130.734 17.217 130.968 17.2343 131.21 17.269C131.453 17.295 131.696 17.3297 131.938 17.373V16.606C131.938 16.242 131.839 15.995 131.639 15.865C131.44 15.7263 131.171 15.657 130.833 15.657C130.573 15.657 130.287 15.6917 129.975 15.761C129.672 15.8303 129.343 15.9387 128.987 16.086L128.558 14.812C129.434 14.4567 130.227 14.279 130.937 14.279C131.579 14.279 132.073 14.3873 132.419 14.604C132.775 14.8207 133.022 15.1067 133.16 15.462C133.299 15.8173 133.368 16.1987 133.368 16.606V19.141C133.368 19.271 133.403 19.3967 133.472 19.518C133.55 19.6307 133.698 19.687 133.914 19.687H134.057V21.065H133.758ZM129.676 19.128C129.676 19.362 129.728 19.5483 129.832 19.687C129.936 19.817 130.088 19.882 130.287 19.882C130.487 19.882 130.712 19.83 130.963 19.726C131.215 19.622 131.54 19.3793 131.938 18.998V18.439C131.488 18.361 131.046 18.322 130.612 18.322C130.274 18.322 130.032 18.3913 129.884 18.53C129.746 18.6687 129.676 18.868 129.676 19.128ZM138.579 15.67C138.362 15.67 138.115 15.722 137.838 15.826C137.561 15.93 137.231 16.1337 136.85 16.437V21H135.355V14.409H136.772V15.293C137.179 14.9377 137.565 14.682 137.929 14.526C138.293 14.3613 138.661 14.279 139.034 14.279C139.667 14.279 140.148 14.4827 140.477 14.89C140.806 15.2887 140.971 15.852 140.971 16.58V21H139.476V16.762C139.476 16.034 139.177 15.67 138.579 15.67ZM144.091 17.321V18.088C144.091 18.6427 144.191 19.0587 144.39 19.336C144.589 19.6133 144.91 19.752 145.352 19.752C145.569 19.752 145.811 19.726 146.08 19.674C146.357 19.6133 146.656 19.5223 146.977 19.401L147.406 20.662C147.016 20.818 146.648 20.935 146.301 21.013C145.954 21.091 145.612 21.13 145.274 21.13C144.407 21.13 143.744 20.8527 143.285 20.298C142.826 19.7433 142.596 19.0067 142.596 18.088V17.321C142.596 16.3937 142.826 15.657 143.285 15.111C143.744 14.5563 144.407 14.279 145.274 14.279C145.603 14.279 145.937 14.318 146.275 14.396C146.613 14.474 146.968 14.5867 147.341 14.734L146.912 16.021C146.288 15.7783 145.768 15.657 145.352 15.657C144.91 15.657 144.589 15.7957 144.39 16.073C144.191 16.3417 144.091 16.7577 144.091 17.321ZM153.779 20.623C153.328 20.805 152.904 20.935 152.505 21.013C152.106 21.091 151.729 21.13 151.374 21.13C150.395 21.13 149.654 20.8527 149.151 20.298C148.648 19.7433 148.397 19.0067 148.397 18.088V17.308C148.397 16.6927 148.51 16.1597 148.735 15.709C148.96 15.2583 149.281 14.9073 149.697 14.656C150.113 14.4047 150.603 14.279 151.166 14.279C151.625 14.279 152.054 14.3743 152.453 14.565C152.86 14.747 153.19 15.0373 153.441 15.436C153.701 15.826 153.831 16.3287 153.831 16.944C153.831 17.126 153.818 17.321 153.792 17.529C153.766 17.7283 153.723 17.9407 153.662 18.166H149.84C149.857 18.7033 149.992 19.1063 150.243 19.375C150.494 19.6437 150.897 19.778 151.452 19.778C151.747 19.778 152.05 19.7433 152.362 19.674C152.683 19.6047 153.012 19.5007 153.35 19.362L153.779 20.623ZM151.166 15.54C150.767 15.54 150.455 15.67 150.23 15.93C150.013 16.1813 149.888 16.5453 149.853 17.022H152.349C152.358 16.9787 152.362 16.9397 152.362 16.905C152.362 16.8617 152.362 16.8227 152.362 16.788C152.362 16.372 152.245 16.06 152.011 15.852C151.777 15.644 151.495 15.54 151.166 15.54ZM159.271 15.774C158.864 15.774 158.474 15.839 158.101 15.969C157.737 16.0903 157.386 16.2897 157.048 16.567V21H155.553V14.409H156.97V15.423C157.412 15.007 157.807 14.7123 158.153 14.539C158.5 14.3657 158.873 14.279 159.271 14.279V15.774Z" fill="black"/>
<g filter="url(#filter0_di_116_50)">
<path d="M5 15.5C5 8.59644 10.5964 3 17.5 3V3C24.4036 3 30 8.59644 30 15.5V15.5C30 22.4036 24.4036 28 17.5 28V28C10.5964 28 5 22.4036 5 15.5V15.5Z" fill="white"/>
<path d="M18.9847 11.1788L20.1421 12.8023L26 11.1788M12.898 23.8212L16.067 20.7229L14.1602 18.6758M18.5044 11.1788L16.8108 12.7046L19.6597 12.8108M11.9212 11.1795L12.5282 12.4262L15.8815 12.6345M13.7154 17.6438L16.1924 13.024L9 12.6337M14.0037 17.9356L16.3433 20.4488L18.9237 17.92L19.7242 13.2082L16.5799 13.0467L14.0037 17.9356Z" fill="#0D99FF"/>
</g>
<defs>
<filter id="filter0_di_116_50" x="1" y="3" width="33" height="33" filterUnits="userSpaceOnUse" color-interpolation-filters="sRGB">
<feFlood flood-opacity="0" result="BackgroundImageFix"/>
<feColorMatrix in="SourceAlpha" type="matrix" values="0 0 0 0 0 0 0 0 0 0 0 0 0 0 0 0 0 0 127 0" result="hardAlpha"/>
<feOffset dy="4"/>
<feGaussianBlur stdDeviation="2"/>
<feComposite in2="hardAlpha" operator="out"/>
<feColorMatrix type="matrix" values="0 0 0 0 0 0 0 0 0 0 0 0 0 0 0 0 0 0 0.25 0"/>
<feBlend mode="normal" in2="BackgroundImageFix" result="effect1_dropShadow_116_50"/>
<feBlend mode="normal" in="SourceGraphic" in2="effect1_dropShadow_116_50" result="shape"/>
<feColorMatrix in="SourceAlpha" type="matrix" values="0 0 0 0 0 0 0 0 0 0 0 0 0 0 0 0 0 0 127 0" result="hardAlpha"/>
<feOffset dy="4"/>
<feGaussianBlur stdDeviation="2"/>
<feComposite in2="hardAlpha" operator="arithmetic" k2="-1" k3="1"/>
<feColorMatrix type="matrix" values="0 0 0 0 0 0 0 0 0 0 0 0 0 0 0 0 0 0 0.25 0"/>
<feBlend mode="normal" in2="shape" result="effect2_innerShadow_116_50"/>
</filter>
</defs>
</svg>
