<svg width="24" height="24" viewBox="0 0 24 24" fill="none" xmlns="http://www.w3.org/2000/svg">
<path d="M12 17L10.5 18.5C9.8369 19.1629 8.93765 19.5353 8 19.5353C7.06236 19.5353 6.1631 19.1629 5.5 18.5C4.83707 17.8369 4.46466 16.9376 4.46466 16C4.46466 15.0624 4.83707 14.1631 5.5 13.5L8.5 10.5C9.1631 9.83707 10.0624 9.46466 11 9.46466C11.9376 9.46466 12.8369 9.83707 13.5 10.5" stroke="black" stroke-width="2" stroke-linecap="round"/>
<path d="M12 7L13.5 5.5C14.1631 4.83707 15.0624 4.46466 16 4.46466C16.9376 4.46466 17.8369 4.83707 18.5 5.5C19.1629 6.1631 19.5353 7.06236 19.5353 8C19.5353 8.93765 19.1629 9.8369 18.5 10.5L15.5 13.5C14.8369 14.1629 13.9376 14.5353 13 14.5353C12.0624 14.5353 11.1631 14.1629 10.5 13.5" stroke="black" stroke-width="2" stroke-linecap="round"/>
</svg>
